<svg width="1120" height="712" viewBox="0 0 1120 712" fill="none" xmlns="http://www.w3.org/2000/svg">
<path d="M560 0.539764L1118.71 227.755L560 469.326L1.29253 227.755L560 0.539764ZM0.5 228.502L558.74 469.87L0.5 711.239V228.502ZM2.41624 711.5L560 470.415L1117.58 711.5H2.41624ZM1119.5 711.239L561.26 469.87L1119.5 228.502V711.239Z" fill="#F7EEED" fill-opacity="0.93" style="mix-blend-mode:soft-light"/>
<path d="M560 0.539764L1118.71 227.755L560 469.326L1.29253 227.755L560 0.539764ZM0.5 228.502L558.74 469.87L0.5 711.239V228.502ZM2.41624 711.5L560 470.415L1117.58 711.5H2.41624ZM1119.5 711.239L561.26 469.87L1119.5 228.502V711.239Z" stroke="#C58A8A"/>
</svg>
