<svg width="64" height="46" viewBox="0 0 64 46" fill="none" xmlns="http://www.w3.org/2000/svg">
<path d="M10.675 0.5C4.7163 6.14943 1 14.1407 1 23C1 31.8593 4.7163 39.8506 10.675 45.5M53.325 0.5C59.2837 6.14943 63 14.1407 63 23C63 31.8593 59.2837 39.8506 53.325 45.5" stroke="#423131"/>
<path d="M11.0043 23.4782L10.9957 22.9783C10.9957 22.9783 10.9957 22.9783 10.9957 22.9783C18.9675 22.8407 24.1203 21.7072 27.3227 18.5962C30.512 15.4978 31.8279 10.3771 31.9471 2.08204C31.9475 2.05356 31.9478 2.02506 31.9483 1.99651L32.4482 2.00344C32.4482 2.00353 32.4482 2.00361 32.4482 2.0037L11.0043 23.4782ZM11.0043 23.4782C11.0043 23.4782 11.0043 23.4782 11.0043 23.4782M11.0043 23.4782L11.0043 23.4782M11.0043 23.4782C18.9567 23.3422 23.8851 24.5737 26.982 27.792C30.0876 31.0195 31.4107 36.3027 31.9788 44.4439L32.4782 44.4266C32.4809 35.8809 33.7168 30.6147 36.9023 27.4952C40.0879 24.3754 45.2896 23.3371 53.423 23.4483L53.4307 22.9484C45.2858 22.808 40.0103 21.7077 36.7857 18.6179C33.5772 15.5435 32.3357 10.4357 32.447 2.08735M11.0043 23.4782L32.447 2.08735M32.447 2.08735C32.4474 2.05973 32.4478 2.03208 32.4482 2.00439L32.447 2.08735Z" fill="white" stroke="#423131" stroke-width="0.5"/>
</svg>
