<svg width="63" height="47" viewBox="0 0 63 47" fill="none" xmlns="http://www.w3.org/2000/svg">
<path d="M10.175 1C4.2163 6.64943 0.5 14.6407 0.5 23.5C0.5 32.3593 4.2163 40.3506 10.175 46M52.825 1C58.7837 6.64943 62.5 14.6407 62.5 23.5C62.5 32.3593 58.7837 40.3506 52.825 46" stroke="#423131"/>
<path d="M10.5043 23.9782L10.4957 23.4783C10.4957 23.4783 10.4957 23.4783 10.4957 23.4783C18.4675 23.3407 23.6203 22.2072 26.8227 19.0962C30.012 15.9978 31.3279 10.8771 31.4471 2.58204C31.4475 2.55356 31.4478 2.52506 31.4483 2.49651L31.9482 2.50344C31.9482 2.50353 31.9482 2.50361 31.9482 2.5037L10.5043 23.9782ZM10.5043 23.9782C10.5043 23.9782 10.5043 23.9782 10.5043 23.9782M10.5043 23.9782L10.5043 23.9782M10.5043 23.9782C18.4567 23.8422 23.3851 25.0737 26.482 28.292C29.5876 31.5195 30.9107 36.8027 31.4788 44.9439L31.9782 44.9266C31.9809 36.3809 33.2168 31.1147 36.4023 27.9952C39.5879 24.8754 44.7896 23.8371 52.923 23.9483L52.9307 23.4484C44.7858 23.308 39.5103 22.2077 36.2857 19.1179C33.0772 16.0435 31.8357 10.9357 31.947 2.58735M10.5043 23.9782L31.947 2.58735M31.947 2.58735C31.9474 2.55973 31.9478 2.53208 31.9482 2.50439L31.947 2.58735Z" fill="white" stroke="#423131" stroke-width="0.5"/>
</svg>
