<svg width="54" height="43" viewBox="0 0 54 43" fill="none" xmlns="http://www.w3.org/2000/svg">
<path d="M9.11454 1C4.1169 6.15855 1 13.4555 1 21.545C1 29.6345 4.1169 36.9315 9.11454 42.09M44.8855 1C49.8831 6.15855 53 13.4555 53 21.545C53 29.6345 49.8831 36.9315 44.8855 42.09" stroke="#423131"/>
<path d="M9.39133 22.0138L9.38305 21.4931C9.38306 21.4931 9.38308 21.4931 9.38309 21.4931C16.0687 21.3674 20.3797 20.3321 23.0566 17.5008C25.7226 14.6811 26.8264 10.0168 26.9262 2.44286C26.9266 2.41747 26.9269 2.39204 26.9272 2.36659L9.39133 22.0138ZM9.39133 22.0138C9.39134 22.0138 9.39135 22.0138 9.39136 22.0138M9.39133 22.0138L9.39136 22.0138M9.39136 22.0138C16.0595 21.8896 20.1819 23.0144 22.7702 25.9429C25.3669 28.8809 26.4764 33.6942 26.9529 41.1279L27.4306 41.1099C27.4329 33.3073 28.47 28.5111 31.1323 25.6725C33.7948 22.8338 38.1462 21.8849 44.9674 21.9864L44.9747 21.4657C38.1435 21.3376 33.7298 20.3324 31.0343 17.5204C28.3531 14.7234 27.3113 10.0723 27.4045 2.4511M9.39136 22.0138L27.4045 2.4511M27.4045 2.4511C27.4049 2.42518 27.4052 2.39923 27.4055 2.37324L26.9272 2.36596C26.9272 2.36605 26.9272 2.36614 26.9272 2.36623L27.4045 2.4511Z" fill="white" stroke="#423131" stroke-width="0.5"/>
</svg>
