<svg width="64" height="47" viewBox="0 0 64 47" fill="none" xmlns="http://www.w3.org/2000/svg">
<path d="M10.675 1C4.7163 6.64943 1 14.6407 1 23.5C1 32.3593 4.7163 40.3506 10.675 46M53.325 1C59.2837 6.64943 63 14.6407 63 23.5C63 32.3593 59.2837 40.3506 53.325 46" stroke="#423131"/>
<path d="M11.0043 23.9782L10.9957 23.4783C10.9957 23.4783 10.9957 23.4783 10.9957 23.4783C18.9675 23.3407 24.1203 22.2072 27.3227 19.0962C30.512 15.9978 31.8279 10.8771 31.9471 2.58204C31.9475 2.55356 31.9478 2.52506 31.9483 2.49651L32.4482 2.50344C32.4482 2.50353 32.4482 2.50361 32.4482 2.5037L11.0043 23.9782ZM11.0043 23.9782C11.0043 23.9782 11.0043 23.9782 11.0043 23.9782M11.0043 23.9782L11.0043 23.9782M11.0043 23.9782C18.9567 23.8422 23.8851 25.0737 26.982 28.292C30.0876 31.5195 31.4107 36.8027 31.9788 44.9439L32.4782 44.9266C32.4809 36.3809 33.7168 31.1147 36.9023 27.9952C40.0879 24.8754 45.2896 23.8371 53.423 23.9483L53.4307 23.4484C45.2858 23.308 40.0103 22.2077 36.7857 19.1179C33.5772 16.0435 32.3357 10.9357 32.447 2.58735M11.0043 23.9782L32.447 2.58735M32.447 2.58735C32.4474 2.55973 32.4478 2.53208 32.4482 2.50439L32.447 2.58735Z" fill="white" stroke="#423131" stroke-width="0.5"/>
</svg>
